<?xml version="1.0" encoding="utf-8"?>
<svg id="master-artboard" viewBox="0 0 310 354" xmlns="http://www.w3.org/2000/svg" width="310px" height="354px" version="1.1" style="shape-rendering:geometricPrecision; text-rendering:geometricPrecision; image-rendering:optimizeQuality; fill-rule:evenodd; clip-rule:evenodd"><rect id="ee-background" x="0" y="0" width="310" height="354" style="fill: white; fill-opacity: 0; pointer-events: none;"/><g transform="matrix(0.4395511746406555, 0, 0, 0.4395511746406555, -156.30444133806327, -83.11398269844466)"><path d="M107.644 470.877L74.634 100.62h362.733l-33.046 370.199L255.778 512z" transform="matrix(1.9140625, 0, 0, 1.9140625, 209.99900817871094, 0)" style="fill: rgb(197, 197, 197); stroke: rgb(191, 191, 191); stroke-width: 0;"/><path d="M256 480.522l120.03-33.276 28.24-316.352H256z" transform="matrix(1.9140625, 0, 0, 1.9140625, 209.99900817871094, 0)" style="fill: rgb(197, 197, 197); stroke: rgb(110, 110, 110); stroke-width: 0;"/><g fill="#ebebeb" transform="matrix(1.9140625, 0, 0, 1.9140625, 209.99900817871094, 0)"><path d="M256 268.217h-60.09l-4.15-46.501H256v-45.411H142.132l1.087 12.183 11.161 125.139H256zM256 386.153l-.198.053-50.575-13.656-3.233-36.217h-45.585l6.362 71.301 93.02 25.823.209-.058z" style="fill: rgb(136, 136, 136);"/></g><g fill="#fff" transform="matrix(1.9140625, 0, 0, 1.9140625, 209.99900817871094, 0)"><path d="M255.844 268.217v45.41h55.917l-5.271 58.894-50.646 13.67v47.244l93.093-25.801.683-7.672 10.671-119.551 1.108-12.194h-12.237zM255.844 176.305V221.716h109.687l.911-10.207 2.069-23.021 1.086-12.183z" style="stroke: rgb(110, 110, 110); stroke-width: 0; fill: rgb(255, 255, 255);"/></g></g></svg>