<svg xmlns:dc="http://purl.org/dc/elements/1.1/" xmlns:cc="http://web.resource.org/cc/" xmlns:rdf="http://www.w3.org/1999/02/22-rdf-syntax-ns#" xmlns:svg="http://www.w3.org/2000/svg" xmlns="http://www.w3.org/2000/svg" xmlns:xlink="http://www.w3.org/1999/xlink" xmlns:sodipodi="http://inkscape.sourceforge.net/DTD/sodipodi-0.dtd" xmlns:inkscape="http://www.inkscape.org/namespaces/inkscape" version="1.0" width="518.4533081054688" height="153.36000061035156" sodipodi:version="0.32" inkscape:version="0.43" sodipodi:docname="logo-python-generic.svg" sodipodi:docbase="/home/sdeibel" style=""><rect id="backgroundrect" width="100%" height="100%" x="0" y="0" fill="none" stroke="none"/>
  <metadata id="metadata2193">
    <rdf:RDF>
      <cc:Work rdf:about="">
        <dc:format>image/svg+xml</dc:format>
        <dc:type rdf:resource="http://purl.org/dc/dcmitype/StillImage"/>
      </cc:Work>
    </rdf:RDF>
  </metadata>
  <sodipodi:namedview inkscape:window-height="543" inkscape:window-width="791" inkscape:pageshadow="2" inkscape:pageopacity="0.0" borderopacity="1.0" bordercolor="#666666" pagecolor="#ffffff" id="base" inkscape:zoom="1.4340089" inkscape:cx="243.02499" inkscape:cy="71.887497" inkscape:window-x="0" inkscape:window-y="0" inkscape:current-layer="svg2"/>
  <defs id="defs4">
    <linearGradient id="linearGradient2795">
      <stop style="stop-color:#b8b8b8;stop-opacity:0.49803922" offset="0" id="stop2797"/>
      <stop style="stop-color:#7f7f7f;stop-opacity:0" offset="1" id="stop2799"/>
    </linearGradient>
    <linearGradient id="linearGradient2787">
      <stop style="stop-color:#7f7f7f;stop-opacity:0.5" offset="0" id="stop2789"/>
      <stop style="stop-color:#7f7f7f;stop-opacity:0" offset="1" id="stop2791"/>
    </linearGradient>
    <linearGradient id="linearGradient3676">
      <stop style="stop-color:#b2b2b2;stop-opacity:0.5" offset="0" id="stop3678"/>
      <stop style="stop-color:#b3b3b3;stop-opacity:0" offset="1" id="stop3680"/>
    </linearGradient>
    <linearGradient id="linearGradient3236">
      <stop style="stop-color:#f4f4f4;stop-opacity:1" offset="0" id="stop3244"/>
      <stop style="stop-color:#ffffff;stop-opacity:1" offset="1" id="stop3240"/>
    </linearGradient>
    <linearGradient id="linearGradient4671">
      <stop style="stop-color:#ffd43b;stop-opacity:1" offset="0" id="stop4673"/>
      <stop style="stop-color:#ffe873;stop-opacity:1" offset="1" id="stop4675"/>
    </linearGradient>
    <linearGradient id="linearGradient4689">
      <stop style="stop-color:#5a9fd4;stop-opacity:1" offset="0" id="stop4691"/>
      <stop style="stop-color:#306998;stop-opacity:1" offset="1" id="stop4693"/>
    </linearGradient>
    <linearGradient x1="224.23995971679688" y1="144.75717163085938" x2="-65.30850219726562" y2="144.75717163085938" id="linearGradient2987" xlink:href="#linearGradient4671" gradientUnits="userSpaceOnUse" gradientTransform="translate(100.2702,99.61116)"/>
    <linearGradient x1="172.94207763671875" y1="77.47598266601562" x2="26.670297622680664" y2="76.3131332397461" id="linearGradient2990" xlink:href="#linearGradient4689" gradientUnits="userSpaceOnUse" gradientTransform="translate(100.2702,99.61116)"/>
    <linearGradient x1="172.94207763671875" y1="77.47598266601562" x2="26.670297622680664" y2="76.3131332397461" id="linearGradient2587" xlink:href="#linearGradient4689" gradientUnits="userSpaceOnUse" gradientTransform="translate(100.2702,99.61116)"/>
    <linearGradient x1="224.23995971679688" y1="144.75717163085938" x2="-65.30850219726562" y2="144.75717163085938" id="linearGradient2589" xlink:href="#linearGradient4671" gradientUnits="userSpaceOnUse" gradientTransform="translate(100.2702,99.61116)"/>
    <linearGradient x1="172.94207763671875" y1="77.47598266601562" x2="26.670297622680664" y2="76.3131332397461" id="linearGradient2248" xlink:href="#linearGradient4689" gradientUnits="userSpaceOnUse" gradientTransform="translate(100.2702,99.61116)"/>
    <linearGradient x1="224.23995971679688" y1="144.75717163085938" x2="-65.30850219726562" y2="144.75717163085938" id="linearGradient2250" xlink:href="#linearGradient4671" gradientUnits="userSpaceOnUse" gradientTransform="translate(100.2702,99.61116)"/>
    <linearGradient x1="224.23995971679688" y1="144.75717163085938" x2="-65.30850219726562" y2="144.75717163085938" id="linearGradient2255" xlink:href="#linearGradient4671" gradientUnits="userSpaceOnUse" gradientTransform="matrix(0.562541,0,0,0.567972,-11.5974,-7.60954)"/>
    <linearGradient x1="172.94207763671875" y1="76.17622375488281" x2="26.670297622680664" y2="76.3131332397461" id="linearGradient2258" xlink:href="#linearGradient4689" gradientUnits="userSpaceOnUse" gradientTransform="matrix(0.562541,0,0,0.567972,-11.5974,-7.60954)"/>
    <radialGradient cx="61.518882751464844" cy="132.28575134277344" r="29.03691291809082" fx="61.518882751464844" fy="132.28575134277344" id="radialGradient2801" xlink:href="#linearGradient2795" gradientUnits="userSpaceOnUse" gradientTransform="matrix(1,0,0,0.177966,0,108.7434)"/>
    <linearGradient x1="150.9611053466797" y1="192.3517608642578" x2="112.03144073486328" y2="137.2729949951172" id="linearGradient1475" xlink:href="#linearGradient4671" gradientUnits="userSpaceOnUse" gradientTransform="matrix(0.562541,0,0,0.567972,-9.399749,-5.305317)"/>
    <linearGradient x1="26.648937225341797" y1="20.60378074645996" x2="135.66525268554688" y2="114.39766693115234" id="linearGradient1478" xlink:href="#linearGradient4689" gradientUnits="userSpaceOnUse" gradientTransform="matrix(0.562541,0,0,0.567972,-9.399749,-5.305317)"/>
    <radialGradient cx="61.518882751464844" cy="132.28575134277344" r="29.03691291809082" fx="61.518882751464844" fy="132.28575134277344" id="radialGradient1480" xlink:href="#linearGradient2795" gradientUnits="userSpaceOnUse" gradientTransform="matrix(2.382716e-8,-0.296405,1.43676,4.683673e-7,-128.544,150.5202)"/>
  </defs>
  
<g class="currentLayer" style=""><title>Layer 1</title><g id="g2303" class="selected" fill="#ffffff" fill-opacity="1">
    <path id="path46" d="M130.13623440945466,42.30608653348221 C130.13623440945466,34.46092743785695 127.89926113927127,30.433323938231116 123.4253145989045,30.212776063736825 C121.64518434032993,30.128760134704176 119.90707012731649,30.412318609132154 118.2162084768901,31.068709553499495 C116.86667399643623,31.551810573322804 115.95823526497095,32.02966430139377 115.48038153689998,32.51276532121709 L115.48038153689998,51.238226964232325 C118.34223506412067,53.03410987279032 120.88377752519418,53.86903264609084 123.0997454662786,53.73775876710792 C127.78898720202412,53.42794228446544 130.13623440945466,49.620886659333905 130.13623440945466,42.30608653348221 zM135.65515162674836,42.63165566610811 C135.65515162674836,46.61724850753603 134.72045488706857,49.92545046286084 132.84055604947793,52.55625614471935 C130.74536201650852,55.53363628830271 127.84149783108992,57.06696066416849 124.12896349322212,57.15098198056434 C121.3301205659351,57.24025058871252 118.44726170961546,56.36331176985089 115.48038153689998,54.52542359045817 L115.48038153689998,71.54427470421784 L110.68086586390731,69.83241311205569 L110.68086586390731,32.055916922245075 C111.46853068725756,31.089714882598454 112.48199606421765,30.260039401050282 113.71075663655648,29.556390506732676 C116.56736287202483,27.891786864520792 120.03834400629938,27.03585337475812 124.12371081410657,26.99384810392339 L124.1919740931558,27.062111382972617 C127.92551376012257,27.014848045659157 130.80312532468986,28.54817780888813 132.8248033994945,31.656831831454415 C134.70994952883748,34.50818538780722 135.65515162674836,38.162961804856884 135.65515162674836,42.63165566610811 z" fill="#ffffff" fill-opacity="1"/>
    <path id="path48" style="" d="M164.98785731359345,53.8007693670416 C164.98785731359345,59.14640204715447 164.45224566470432,62.848434797945444 163.38102236692612,64.90687085183245 C162.30454100266917,66.96530690571947 160.2566103070132,68.60890521883239 157.23196682611638,69.83241311205569 C154.77969836055425,70.79861515170231 152.1278873495968,71.32372682972355 149.2817864723595,71.41299543787173 L148.48886896989373,68.38835734433809 C151.38222779708124,67.99452493266297 153.4196639092325,67.60068713362466 154.60116114425787,67.20685472194953 C156.92740302258943,66.41918989859927 158.52374338575208,65.2114346553594 159.40067681725054,63.59408896309777 C160.10432571156815,62.27606139881971 160.45090017329298,59.76078233332388 160.45090017329298,56.03774263722499 L160.45090017329298,54.787982123150385 C157.16895622618273,56.27929584081824 153.72947500451178,57.019702714218226 150.13246728300663,57.019702714218226 C147.7694674255927,57.019702714218226 145.6847733634912,56.27929584081824 143.8888958422964,54.787982123150385 C141.8724650592441,53.165383751773234 140.86425236139956,51.10694769788621 140.86425236139956,48.61267396148935 L140.86425236139956,28.63744641703632 L145.6637680343922,26.99384810392339 L145.6637680343922,47.10034952735934 C145.6637680343922,49.24805418939454 146.35691695784195,50.90215786073854 147.7432094173782,52.06265515402815 C149.12950187691445,53.22314705995457 150.92538478547243,53.77976403794265 153.12560007657345,53.73775876710792 C155.32581536767444,53.69049542979447 157.68356254597285,52.83981461914732 160.1883416406008,51.17521636429863 L160.1883416406008,27.71850232733996 L164.98785731359345,27.71850232733996 L164.98785731359345,53.8007693670416 z" fill="#ffffff" fill-opacity="1"/>
    <path id="path50" style="" d="M183.7238243148398,56.88842344787212 C183.15145468686828,56.93568139782239 182.62634300884704,56.956686726921355 182.14324198902372,56.956686726921355 C179.4284149907694,56.956686726921355 177.312215628701,56.31080114078509 175.7998965819342,55.01377728939702 C174.29282482691974,53.71675343800895 173.5366706908995,51.92612320856651 173.5366706908995,49.64189198843285 L173.5366706908995,30.737887741758055 L170.24947406467368,30.737887741758055 L170.24947406467368,27.71850232733996 L173.5366706908995,27.71850232733996 L173.5366706908995,19.70005330717067 L178.33093368477665,17.99343900676086 L178.33093368477665,27.71850232733996 L183.7238243148398,27.71850232733996 L183.7238243148398,30.737887741758055 L178.33093368477665,30.737887741758055 L178.33093368477665,49.510612722086755 C178.33093368477665,51.311742922397094 178.81403470459995,52.58776144468619 179.78024213160978,53.33342099720171 C180.60991761315796,53.947801283371135 181.927946793645,54.299628424211534 183.7238243148398,54.388897032359715 L183.7238243148398,56.88842344787212 z" fill="#ffffff" fill-opacity="1"/>
    <path id="path52" style="" d="M212.7834714981248,56.494591036196994 L207.9839558251321,56.494591036196994 L207.9839558251321,37.968671938577096 C207.9839558251321,36.083520421870915 207.54286007614354,34.46092743785695 206.6659320320083,33.10614027828754 C205.6524666550482,31.572815902421763 204.2451634790498,30.80615102080728 202.4387859869871,30.80615102080728 C200.23856530852294,30.80615102080728 197.4869803311862,31.966648314096897 194.1840418297033,34.28764290067612 L194.1840418297033,56.494591036196994 L189.38452076934746,56.494591036196994 L189.38452076934746,12.211968590264519 L194.1840418297033,10.699649543497701 L194.1840418297033,30.86916700810416 C197.25069058143484,28.63744641703632 200.60089242023122,27.518959781944627 204.23991079993428,27.518959781944627 C206.78145326100775,27.518959781944627 208.83988931489478,28.374887884344105 210.41521896159531,30.08150218475391 C211.99580667477454,31.78811109780052 212.7834714981248,33.914810430736765 212.7834714981248,36.45634750444708 L212.7834714981248,56.494591036196994 L212.7834714981248,56.494591036196994 z" fill="#ffffff" fill-opacity="1"/>
    <path id="path54" style="" d="M238.29336890985493,41.5499270100988 C238.29336890985493,38.53578888743306 237.72100466924664,36.046762442788534 236.5815073176928,34.07759499704971 C235.22672554548657,31.677837160553374 233.1210315416493,30.412318609132154 230.27492527704882,30.281039342786045 C225.01331391333184,30.585608533676183 222.38776091058887,34.35590617972534 222.38776091058887,41.581432310065644 C222.38776091058887,44.894886944506 222.93387253034587,47.662219184462955 224.03660112809092,49.88343980466291 C225.44390430408933,52.713788031916756 227.55485098704213,54.110585849684085 230.36944656431257,54.06332789973382 C235.65206325712856,54.0213172415359 238.29336890985493,49.851934504696075 238.29336890985493,41.5499270100988 zM243.5497383691828,41.581432310065644 C243.5497383691828,45.871594342383695 242.45225706319007,49.442349443037536 240.26254174295696,52.29370299939033 C237.85228393559274,55.48637833835245 234.523076651169,57.08796599326746 230.27492527704882,57.08796599326746 C226.06353726937428,57.08796599326746 222.78159332226397,55.48637833835245 220.4133407857345,52.29370299939033 C218.2656361236993,49.442349443037536 217.19440743855787,45.871594342383695 217.19440743855787,41.581432310065644 C217.19440743855787,37.54858151868747 218.3549047318475,34.156363634330006 220.6758939310635,31.394278686125393 C223.12816778398883,28.46415649249229 226.35234842291783,26.99384810392339 230.33793587698256,26.99384810392339 C234.32353410577366,26.99384810392339 237.56871468643834,28.46415649249229 240.06825187667718,31.394278686125393 C242.38923568853002,34.156363634330006 243.5497383691828,37.54858151868747 243.5497383691828,41.581432310065644 z" fill="#ffffff" fill-opacity="1"/>
    <path id="path56" style="" d="M271.06555581837097,56.494591036196994 L266.2660401453783,56.494591036196994 L266.2660401453783,36.91844858253462 C266.2660401453783,34.77074392049943 265.62015455924205,33.095640307419664 264.32838338696956,31.88787967681659 C263.0366068273338,30.68537711269225 261.31424526430374,30.102502126489675 259.1665406022686,30.149765463803135 C256.8875620612505,30.191776122001055 254.7188466827531,30.937430287153386 252.6604160162293,32.381486054870976 L252.6604160162293,56.494591036196994 L247.86090034323664,56.494591036196994 L247.86090034323664,31.78811109780052 C250.62298529144124,29.77693838122697 253.16452236515156,28.46415649249229 255.4855061770044,27.849776206322872 C257.6752268846007,27.27740657835137 259.60763635125716,26.99384810392339 261.27223999346904,26.99384810392339 C262.4117319576597,26.99384810392339 263.4829552554379,27.10412204117054 264.49116795328246,27.324664528301636 C266.3763194699887,27.760507598174687 267.9096384584912,28.569177750623897 269.0911410808798,29.755933052128007 C270.40916487400364,31.068709553499495 271.06555581837097,32.644044587563194 271.06555581837097,34.487180058708255 L271.06555581837097,56.494591036196994 z" fill="#ffffff" fill-opacity="1"/>
    <path id="path1948" style="" d="M63.277287944161756,12.389309811931506 C60.80790759688199,12.400783979686016 58.44970464765725,12.611386458479766 56.37472885002396,12.978552661431072 C50.26211020145016,14.058451661151953 49.15229560489415,16.318772847572564 49.15229506615783,20.487190168927768 L49.15229506615783,25.992401934252303 L63.59716263389009,25.992401934252303 L63.59716263389009,27.827472522693814 L49.15229506615783,27.827472522693814 L43.7312608507618,27.827472522693814 C39.533180168916275,27.827472522693814 35.85722053203493,30.350760981052275 34.707427390678305,35.150919366474156 C33.38115554450228,40.65301508092646 33.32232817821621,44.086412353340776 34.707427390678305,49.831484074006234 C35.73422018833213,54.10789324555902 38.18634044753276,57.15492984031394 42.38442005190565,57.15493091778658 L47.350895497687716,57.15493091778658 L47.350895497687716,50.55541100339142 C47.350895497687716,45.78764737159995 51.476077074454366,41.58208525848493 56.37472885002396,41.5820841810123 L70.80276090777052,41.5820841810123 C74.81901377187992,41.5820841810123 78.0251963078456,38.27523229890426 78.02519469163664,34.24180182724625 L78.02519469163664,20.487190168927768 C78.02519469163664,16.572549439519918 74.72275182756775,13.631890371581038 70.80276090777052,12.978552661431072 C68.32134842353008,12.565489895208984 65.74666829144151,12.377835644176995 63.277287944161756,12.389309811931506 zM55.465611310796056,16.817048992044747 C56.95766686837592,16.817048992044747 58.176128418494066,18.055413078015746 58.176128418494066,19.578072629699864 C58.17612734102142,21.095335120934802 56.95766686837592,22.32226075736928 55.465611310796056,22.32226075736928 C53.96820664029946,22.32226021863296 52.75509420309804,21.095334582198483 52.75509420309804,19.578072629699864 C52.75509366436172,18.05541361675207 53.96820664029946,16.817048992044747 55.465611310796056,16.817048992044747 z" fill="#ffffff" fill-opacity="1"/>
    <path id="path1950" style="" d="M79.82659426010676,27.827472522693814 L79.82659426010676,34.24180182724625 C79.82659426010676,39.21474480254443 75.610500390681,43.40031872073179 70.80276090777052,43.400319259468105 L56.37472885002396,43.400319259468105 C52.42264917882582,43.400319259468105 49.15229560489415,46.78276608319802 49.15229506615783,50.74060161323414 L49.15229506615783,64.49521165534367 C49.15229506615783,68.40985292348785 52.55634790998299,70.71240117848593 56.37472885002396,71.83549400910971 C60.947162315702606,73.17996975552308 65.33188657924467,73.42295061036312 70.80276090777052,71.83549400910971 C74.43931456881167,70.78259313355912 78.0251963078456,68.66362466680832 78.02519469163664,64.49521165534367 L78.02519469163664,58.99000150622809 L63.59716263389009,58.99000150622809 L63.59716263389009,57.15493091778658 L78.02519469163664,57.15493091778658 L85.24763063044804,57.15493091778658 C89.4457118510299,57.15493091778658 91.01008898835413,54.22667921665493 92.47005902695099,49.831484074006234 C93.97815976833579,45.30669914210954 93.91399088531509,40.95538515016022 92.47005902695099,35.150919366474156 C91.43257139750251,30.971704153066362 89.45105072795656,27.827472522693814 85.24763063044804,27.827472522693814 L79.82659426010676,27.827472522693814 zM71.71187844699843,62.66014268311111 C73.20928419496767,62.66014429932008 74.42239555469644,63.887069935754546 74.42239555469644,65.40432919457157 C74.4223944772238,66.92698659131042 73.2092825787587,68.16535283222669 71.71187844699843,68.16535283222669 C70.21982127320959,68.16535283222669 69.00136133930042,66.92698659131042 69.00136133930042,65.40432919457157 C69.00136241677305,63.887069935754546 70.21981965700064,62.66014268311111 71.71187844699843,62.66014268311111 z" fill="#ffffff" fill-opacity="1"/>
    <path id="text3004" style="font-size: 15.1645px; font-style: normal; font-weight: normal; line-height: 125%; stroke: none; stroke-width: 1px; stroke-linecap: butt; stroke-linejoin: miter; stroke-opacity: 1; font-family: &quot;Bitstream Vera Sans&quot;;" d="M280.41186056949573,23.439551397831586 L281.2533397638051,23.439551397831586 L281.2533397638051,18.161961114876938 L283.24673418183374,18.161961114876938 L283.24673418183374,17.532900263999988 L278.4184661514671,17.532900263999988 L278.4184661514671,18.161961114876938 L280.41186056949573,18.161961114876938 L280.41186056949573,23.439551397831586 M283.9928516602209,23.439551397831586 L284.7117791165607,23.439551397831586 L284.7117791165607,18.619461384795592 L286.2721803798467,23.438945858208424 L287.0725755424277,23.438945858208424 L288.698567952618,18.63580125736732 L288.698567952618,23.439551397831586 L289.4828548992447,23.439551397831586 L289.4828548992447,17.532900263999988 L288.4453080088011,17.532900263999988 L286.668388618691,22.59317347416864 L285.15293951390765,17.532900263999988 L283.9928516602209,17.532900263999988 L283.9928516602209,23.439551397831586 " fill="#ffffff" fill-opacity="1"/>
    <path id="path1894" style="opacity: 0.44382; fill-rule: nonzero; stroke: none; stroke-width: 20; stroke-miterlimit: 4; stroke-dasharray: none; stroke-opacity: 1;" d="M83.11838351120454,81.18586594092035 A19.357322496740323,3.7535438476558483 0 1 1 44.40373733132956,81.18586594092035 A19.357322496740323,3.7535438476558483 0 1 1 83.11838351120454,81.18586594092035 z" fill="#ffffff" fill-opacity="1"/>
  </g></g></svg>